<?xml version="1.0" encoding="UTF-8" standalone="no"?>
<!-- Created with Inkscape (http://www.inkscape.org/) -->

<svg
   width="1920"
   height="1080"
   viewBox="0 0 1920 1080"
   version="1.1"
   id="svg1"
   xml:space="preserve"
   xmlns="http://www.w3.org/2000/svg"
   xmlns:svg="http://www.w3.org/2000/svg"><defs
     id="defs1" /><rect
     style="fill:#0f2c26;fill-opacity:1;stroke:none;stroke-width:34.5764"
     id="rect1"
     width="804.01965"
     height="758.37823"
     x="558.6991"
     y="171.22369" /><g
     id="layer1"><g
       id="g1"
       transform="translate(-11.970605,-24.654843)"
       style="fill:#6deb93;fill-opacity:1"><g
         id="g14"
         transform="matrix(2.183668,0,0,2.183668,-461.86183,-168.72069)"
         style="display:inline;fill:#6deb93;fill-opacity:1"><rect
           style="opacity:1;fill:#6deb93;fill-opacity:1;stroke:none;stroke-width:6.39334;stroke-linecap:square;stroke-linejoin:miter;stroke-dasharray:none;stroke-opacity:1;paint-order:normal"
           id="rect13"
           width="31.228661"
           height="127.59008"
           x="597.52551"
           y="252.66635" /><rect
           style="fill:#6deb93;fill-opacity:1;stroke:none;stroke-width:6.39334;stroke-linecap:square;stroke-linejoin:miter;stroke-dasharray:none;stroke-opacity:1;paint-order:normal"
           id="rect13-4"
           width="31.228661"
           height="127.59008"
           x="684.47882"
           y="252.66635" /><path
           style="opacity:1;fill:#6deb93;fill-opacity:1;stroke:none;stroke-width:41.9479;stroke-linecap:round;stroke-linejoin:round;stroke-dasharray:none;stroke-opacity:1;paint-order:normal"
           id="path14"
           d="m 667.23419,286.55145 a 10.617673,10.617673 0 0 1 -10.54643,10.61744 10.617673,10.617673 0 0 1 -10.68796,-10.47495 10.617673,10.617673 0 0 1 10.40299,-10.75801 10.617673,10.617673 0 0 1 10.82757,10.33057" /></g><path
         style="font-weight:bold;font-size:37.4904px;line-height:0;font-family:Gotham;-inkscape-font-specification:'Gotham Bold';fill:#6deb93;stroke-width:46.3553;stroke-linecap:square;fill-opacity:1"
         d="m 759.42801,745.39139 v -52.47037 h -11.5434 v 20.76328 h -21.2881 v -20.76328 h -11.5434 v 52.47037 h 11.5434 v -21.06311 h 21.2881 v 21.06311 z m 66.0379,-26.23518 v -0.14995 c 0,-14.91656 -11.6184,-26.98477 -27.8095,-26.98477 -16.1908,0 -27.9591,12.21812 -27.9591,27.1347 v 0.14996 c 0,14.91658 11.6184,26.98476 27.8092,26.98476 16.191,0 27.9594,-12.21812 27.9594,-27.13468 z m -12.0683,0.14996 c 0,8.9949 -6.4464,16.34076 -15.7412,16.34076 -9.2947,0 -15.8909,-7.49577 -15.8909,-16.49068 v -0.14995 c 0,-8.99491 6.4463,-16.34077 15.741,-16.34077 9.2949,0 15.8911,7.49577 15.8911,16.4907 z m 74.8077,26.08526 v -52.47037 h -12.4429 l -13.7922,22.18746 -13.7921,-22.18746 h -12.443 v 52.47037 h 11.3185 v -34.0308 l 14.6167,22.18749 h 0.2999 l 14.7667,-22.41236 v 34.25567 z m 52.5454,0 v -10.2692 h -28.4838 v -11.01878 h 24.736 v -10.2692 h -24.736 v -10.644 h 28.1092 v -10.26919 h -39.5778 v 52.47037 z m 63.71419,-26.23518 v -0.14995 c 0,-14.91656 -11.61859,-26.98477 -27.80939,-26.98477 -16.1908,0 -27.9592,12.21812 -27.9592,27.1347 v 0.14996 c 0,14.91658 11.6184,26.98476 27.8092,26.98476 16.191,0 27.95939,-12.21812 27.95939,-27.13468 z m -12.06829,0.14996 c 0,8.9949 -6.4464,16.34076 -15.7411,16.34076 -9.2948,0 -15.8911,-7.49577 -15.8911,-16.49068 v -0.14995 c 0,-8.99491 6.4464,-16.34077 15.7411,-16.34077 9.2948,0 15.8911,7.49577 15.8911,16.4907 z m 82.75329,10.56902 v -0.14996 c 0,-9.14484 -5.9967,-12.96768 -16.6406,-15.7411 -9.0699,-2.32369 -11.3186,-3.44806 -11.3186,-6.89612 v -0.14995 c 0,-2.54856 2.3237,-4.57241 6.7462,-4.57241 4.4224,0 8.9948,1.9489 13.6422,5.17206 l 5.9967,-8.69508 c -5.322,-4.2726 -11.8433,-6.67124 -19.489,-6.67124 -10.7189,0 -18.3647,6.29646 -18.3647,15.81608 v 0.14996 c 0,10.41911 6.8213,13.34247 17.3902,16.04093 8.7701,2.24873 10.5692,3.74789 10.5692,6.67125 v 0.14995 c 0,3.07325 -2.8486,4.9472 -7.5709,4.9472 -5.9966,0 -10.9438,-2.4736 -15.6662,-6.3714 l -6.8211,8.17038 c 6.2965,5.62183 14.317,8.39528 22.2626,8.39528 11.3185,0 19.264,-5.8467 19.264,-16.26583 z m 49.9968,15.51624 v -10.2692 h -28.484 v -11.01878 h 24.736 v -10.2692 h -24.736 v -10.644 h 28.1091 V 692.9211 h -39.5776 v 52.47037 z m 49.9968,-41.82639 V 692.9211 h -43.4756 v 10.64398 h 15.9661 v 41.82639 h 11.5434 v -41.82639 z m 53.7446,18.96429 V 692.9211 h -11.5434 v 30.05803 c 0,8.3203 -4.2727,12.59288 -11.3187,12.59288 -7.046,0 -11.3185,-4.42249 -11.3185,-12.96768 V 692.9211 h -11.5437 v 29.98308 c 0,15.44128 8.6202,23.31183 22.7122,23.31183 14.0921,0 23.0121,-7.79559 23.0121,-23.68664 z"
         id="text13-5"
         aria-label="HOMEO SETU" /><path
         id="path11"
         style="stroke-width:1.96407;fill:#6deb93;fill-opacity:1"
         d="M 1100.0493,608.10961 997.45931,503.76973 c -7.0174,-7.13026 -14.2854,-12.03069 -22.9425,-12.18094 -8.1523,-0.14156 -17.3059,6.06365 -21.989,10.71357 l -108.6359,107.83007 v 22.14942 l 95.6461,-58.31407 c 21.7173,-13.24086 48.694,-13.06692 70.25049,0.453 l 90.2608,56.61145 z" /></g><rect
       style="fill:#6deb93;fill-opacity:1;stroke:none;stroke-width:4.108"
       id="rect1-5"
       width="92.77404"
       height="92.77404"
       x="151.72244"
       y="694.21399" /></g></svg>
